# xmcd CD database file
#
# Track frame offsets:
#	150
#	14467
#	30687
#	45326
#	62414
#	81081
#	97137
#	120842
#	140035
#	158289
#	173327
#	192093
#	212335
#
# Disc length: 3058 seconds
#
# Revision: 0
# Processed by: cddbd v1.5.2PL0 Copyright (c) Steve Scherf et al.
# Submitted via: CDex 1.51
#
DISCID=930bf00d
DTITLE=T. Graham Brown - Forever Changed
DYEAR=2015
DGENRE=Country
TTITLE0=He'll Take Care of You
TTITLE1=From a Stronger Place
TTITLE2=Soul Talk
TTITLE3=Forever Changed
TTITLE4=Shadow of a Doubt
TTITLE5=Power of Love
TTITLE6=Out of the Rain
TTITLE7=People Get Ready
TTITLE8=Pillow of Mercy
TTITLE9=Midnight Rainbow
TTITLE10=Which Way to Pray
TTITLE11=How Do You Know
TTITLE12=Wine into Water
EXTD=YEAR: 2015
EXTT0=
EXTT1=
EXTT2=
EXTT3=
EXTT4=
EXTT5=
EXTT6=
EXTT7=
EXTT8=
EXTT9=
EXTT10=
EXTT11=
EXTT12=
PLAYORDER=
